<?xml version="1.0" encoding="UTF-8"?>
<svg version="1.1" xmlns="http://www.w3.org/2000/svg" width="320" height="319">
<path d="M0 0 C14.64305894 3.41754527 26.89725749 17.68230377 34.73828125 29.76171875 C37.16174554 34.15107016 38.09135135 37.43496213 37.29296875 42.53515625 C34.95757596 45.72086368 32.13210381 48.30622403 29.23046875 50.97265625 C27.71635482 52.40632882 26.20461462 53.84251266 24.6953125 55.28125 C23.94886475 55.98886475 23.20241699 56.69647949 22.43334961 57.42553711 C19.80986127 60.01132047 17.42616099 62.75324778 15.03295898 65.55053711 C11.96291085 69.0522098 8.65667115 72.31555435 5.35546875 75.59765625 C4.69095703 76.26603516 4.02644531 76.93441406 3.34179688 77.62304688 C2.67728516 78.28626953 2.01277344 78.94949219 1.328125 79.6328125 C0.74426025 80.21554932 0.16039551 80.79828613 -0.44116211 81.39868164 C-2.36194682 83.20977818 -4.32090556 84.92628119 -6.32421684 86.64377975 C-10.78976233 90.5459643 -14.95105032 94.69761986 -19.09793091 98.93365479 C-19.90439336 99.75266856 -20.71085581 100.57168233 -21.54175651 101.41551471 C-23.29884065 103.20049215 -25.05467047 104.98670498 -26.8093853 106.77401161 C-29.66659928 109.68412459 -32.52699287 112.59107523 -35.38865662 115.49681091 C-35.88303673 115.99881473 -36.37741684 116.50081855 -36.88677816 117.01803461 C-37.90366382 118.05057916 -38.92056398 119.08310944 -39.93747815 120.11562592 C-41.50768294 121.71014293 -43.07753903 123.30500262 -44.64734006 124.89991713 C-52.30922394 132.68316572 -59.98612096 140.45141574 -67.67184448 148.21112061 C-68.50870791 149.05608687 -68.50870791 149.05608687 -69.36247768 149.91812316 C-74.5408943 155.14641307 -79.72037717 160.37364589 -84.90085053 165.59989786 C-88.44745067 169.17789053 -91.99352577 172.75640278 -95.5390625 176.33544922 C-96.42214287 177.22685368 -96.42214287 177.22685368 -97.32306324 178.13626632 C-106.830461 187.7352272 -116.30513898 197.36587619 -125.76841845 207.00831106 C-135.52128925 216.94422978 -145.31094766 226.84282279 -155.1341151 236.70925117 C-161.1701747 242.77423312 -167.17673314 248.86552383 -173.14654879 254.99573317 C-177.25748306 259.21154133 -181.40402482 263.39019553 -185.57822354 267.54336151 C-187.97326704 269.92837718 -190.34390862 272.3280882 -192.68607521 274.76564598 C-206.54133828 289.1569866 -219.63619121 295.80078774 -238.39436889 301.50276136 C-243.07883039 302.96267897 -247.64626621 304.68861715 -252.22265625 306.453125 C-253.71038283 307.0112464 -255.19858131 307.56811356 -256.6875 308.12304688 C-258.87571543 308.9423087 -261.0634915 309.76269501 -263.25048828 310.58520508 C-265.46930268 311.41908245 -267.68958148 312.24894901 -269.91015625 313.078125 C-270.90187836 313.4529023 -270.90187836 313.4529023 -271.91363525 313.83525085 C-276.47977225 315.53515625 -276.47977225 315.53515625 -278.70703125 315.53515625 C-276.65666352 308.35279469 -274.25126828 301.36252266 -271.6171875 294.375 C-271.23139023 293.34508438 -270.84559296 292.31516876 -270.44810486 291.25404358 C-269.63700409 289.09120725 -268.8242824 286.92897816 -268.01000977 284.76733398 C-266.77231092 281.48003897 -265.54107017 278.19037741 -264.31054688 274.90039062 C-263.51731149 272.78761605 -262.72370416 270.67498108 -261.9296875 268.5625 C-261.56601578 267.59038071 -261.20234406 266.61826141 -260.82765198 265.61668396 C-260.47726364 264.68864456 -260.12687531 263.76060516 -259.76586914 262.80444336 C-259.46403214 262.00187607 -259.16219513 261.19930878 -258.85121155 260.37242126 C-258.47363205 259.43612381 -258.09605255 258.49982635 -257.70703125 257.53515625 C-257.48989568 256.90965272 -257.27276011 256.28414918 -257.04904467 255.639691 C-254.30437875 248.49233895 -249.74686766 243.88097166 -244.35592651 238.56932068 C-243.38763237 237.5974088 -242.42043525 236.62440296 -241.45423615 235.65040833 C-238.81029258 232.99147318 -236.1510954 230.3482782 -233.48902726 227.70750606 C-230.61563302 224.85164552 -227.75674429 221.98132622 -224.89599609 219.11280823 C-219.29672616 213.50288268 -213.68427092 207.90633076 -208.06724225 202.31419265 C-201.52887008 195.80377148 -195.00383136 189.28005481 -188.47933723 182.75573064 C-176.84290685 171.12048675 -165.19463681 159.49716902 -153.53955078 147.88061523 C-142.22251038 136.60096539 -130.9135925 125.31325593 -119.61376953 114.01635742 C-118.91699427 113.31976497 -118.220219 112.62317251 -117.50232933 111.9054712 C-116.45899519 110.86240551 -116.45899519 110.86240551 -115.39458358 109.79826778 C-113.99421906 108.39826867 -112.59385105 106.99827303 -111.19347954 105.59828091 C-110.50291377 104.90790065 -109.812348 104.2175204 -109.100856 103.50621953 C-98.33778772 92.74671709 -87.56728496 81.99465888 -76.79604419 71.2433388 C-72.88841981 67.34274513 -68.98192295 63.44102625 -65.07623635 59.53849231 C-58.88592701 53.3532221 -52.69247293 47.17114043 -46.49225007 40.99580633 C-43.65816424 38.17297435 -40.8256866 35.34857744 -37.9974556 32.51987839 C-35.41244522 29.93456133 -32.82290695 27.35387475 -30.22954513 24.77693594 C-28.84005515 23.39385983 -27.45548631 22.0058453 -26.07105434 20.61770624 C-25.25442447 19.80814196 -24.43779461 18.99857769 -23.59641838 18.16448116 C-22.88850965 17.45852336 -22.18060093 16.75256555 -21.45124042 16.02521509 C-19.70703125 14.53515625 -19.70703125 14.53515625 -17.70703125 14.53515625 C-17.36671875 13.69984375 -17.36671875 13.69984375 -17.01953125 12.84765625 C-15.33325858 9.8766044 -13.17667725 7.889935 -10.70703125 5.53515625 C-9.94390625 4.60703125 -9.18078125 3.67890625 -8.39453125 2.72265625 C-5.5023454 0.36855149 -3.73608344 -0.27337196 0 0 Z " fill="#FEC234" transform="translate(279.70703125,2.46484375)"/>
<path d="M0 0 C14.64305894 3.41754527 26.89725749 17.68230377 34.73828125 29.76171875 C37.16174554 34.15107016 38.09135135 37.43496213 37.29296875 42.53515625 C34.95757596 45.72086368 32.13210381 48.30622403 29.23046875 50.97265625 C27.71635482 52.40632882 26.20461462 53.84251266 24.6953125 55.28125 C23.94886475 55.98886475 23.20241699 56.69647949 22.43334961 57.42553711 C19.80986127 60.01132047 17.42616099 62.75324778 15.03295898 65.55053711 C11.96291085 69.0522098 8.65667115 72.31555435 5.35546875 75.59765625 C4.69095703 76.26603516 4.02644531 76.93441406 3.34179688 77.62304688 C2.67728516 78.28626953 2.01277344 78.94949219 1.328125 79.6328125 C0.74426025 80.21554932 0.16039551 80.79828613 -0.44116211 81.39868164 C-2.36194682 83.20977818 -4.32090556 84.92628119 -6.32421684 86.64377975 C-10.78976233 90.5459643 -14.95105032 94.69761986 -19.09793091 98.93365479 C-19.90439336 99.75266856 -20.71085581 100.57168233 -21.54175651 101.41551471 C-23.29884065 103.20049215 -25.05467047 104.98670498 -26.8093853 106.77401161 C-29.66659928 109.68412459 -32.52699287 112.59107523 -35.38865662 115.49681091 C-35.88303673 115.99881473 -36.37741684 116.50081855 -36.88677816 117.01803461 C-37.90366382 118.05057916 -38.92056398 119.08310944 -39.93747815 120.11562592 C-41.50768294 121.71014293 -43.07753903 123.30500262 -44.64734006 124.89991713 C-52.30922394 132.68316572 -59.98612096 140.45141574 -67.67184448 148.21112061 C-68.50870791 149.05608687 -68.50870791 149.05608687 -69.36247768 149.91812316 C-74.5408943 155.14641307 -79.72037717 160.37364589 -84.90085053 165.59989786 C-88.44745067 169.17789053 -91.99352577 172.75640278 -95.5390625 176.33544922 C-96.42214287 177.22685368 -96.42214287 177.22685368 -97.32306324 178.13626632 C-106.830461 187.7352272 -116.30513898 197.36587619 -125.76841845 207.00831106 C-135.52128925 216.94422978 -145.31094766 226.84282279 -155.1341151 236.70925117 C-161.1701747 242.77423312 -167.17673314 248.86552383 -173.14654879 254.99573317 C-177.25748306 259.21154133 -181.40402482 263.39019553 -185.57822354 267.54336151 C-187.97326704 269.92837718 -190.34390862 272.3280882 -192.68607521 274.76564598 C-206.54133828 289.1569866 -219.63619121 295.80078774 -238.39436889 301.50276136 C-243.07883039 302.96267897 -247.64626621 304.68861715 -252.22265625 306.453125 C-253.71038283 307.0112464 -255.19858131 307.56811356 -256.6875 308.12304688 C-258.87571543 308.9423087 -261.0634915 309.76269501 -263.25048828 310.58520508 C-265.46930268 311.41908245 -267.68958148 312.24894901 -269.91015625 313.078125 C-270.90187836 313.4529023 -270.90187836 313.4529023 -271.91363525 313.83525085 C-276.47977225 315.53515625 -276.47977225 315.53515625 -278.70703125 315.53515625 C-276.6553432 308.33575446 -274.23425641 301.33821605 -271.58203125 294.33984375 C-271.1938623 293.30755646 -270.80569336 292.27526917 -270.40576172 291.21170044 C-269.17596456 287.94333648 -267.94159347 284.67672287 -266.70703125 281.41015625 C-265.87859971 279.21105295 -265.05047201 277.01183517 -264.22265625 274.8125 C-262.70109745 270.77126095 -261.17779481 266.73068935 -259.65234375 262.69091797 C-257.99757364 258.30802155 -256.35008896 253.92245619 -254.70703125 249.53515625 C-254.37703125 249.53515625 -254.04703125 249.53515625 -253.70703125 249.53515625 C-254.03703125 252.50515625 -254.36703125 255.47515625 -254.70703125 258.53515625 C-249.42703125 258.53515625 -244.14703125 258.53515625 -238.70703125 258.53515625 C-238.70703125 266.66015625 -238.70703125 266.66015625 -239.70703125 270.53515625 C-239.74591474 272.86816558 -239.75189475 275.20225426 -239.70703125 277.53515625 C-238.26963612 277.56227691 -236.83209262 277.58160692 -235.39453125 277.59765625 C-234.59402344 277.60925781 -233.79351562 277.62085938 -232.96875 277.6328125 C-230.53841791 277.6317348 -230.53841791 277.6317348 -227.70703125 276.53515625 C-225.99782168 276.50368053 -224.28849423 276.47837269 -222.57912731 276.45709324 C-215.65496603 275.84754036 -212.43359219 272.64601793 -207.75349426 267.78416443 C-206.92330157 266.96251598 -206.09310887 266.14086753 -205.23775882 265.29432064 C-202.95227658 263.02240875 -200.6905371 260.72963495 -198.43716848 258.42594969 C-195.99675955 255.94219239 -193.52734421 253.48756595 -191.06140137 251.02920532 C-186.79763436 246.77067166 -182.55250117 242.49427217 -178.31962013 238.2050457 C-172.1996929 232.00370743 -166.05220387 225.83030079 -159.89772686 219.66327251 C-149.91238476 209.65606598 -139.94955974 199.62675133 -130.00073242 189.58325195 C-120.33865851 179.82933099 -110.66609484 170.08601103 -100.97924805 160.35668945 C-100.38175189 159.75656607 -99.78425574 159.15644268 -99.16865364 158.53813373 C-96.17100486 155.52743419 -93.17314879 152.51694113 -90.17518961 149.50655067 C-65.32025132 124.54801323 -40.50178675 99.55347706 -15.70703125 74.53515625 C-17.54226874 70.55544602 -20.14939127 67.86967808 -23.265625 64.8515625 C-23.81058121 64.31417953 -24.35553741 63.77679657 -24.91700745 63.22312927 C-27.24035523 60.9323645 -29.57535193 58.65360799 -31.90942383 56.3737793 C-33.61562856 54.70386155 -35.31571824 53.0278871 -37.015625 51.3515625 C-37.80325478 50.58882774 -37.80325478 50.58882774 -38.60679626 49.8106842 C-41.51766194 46.93875948 -43.77494721 44.14251009 -45.70703125 40.53515625 C-42.0472092 36.82601045 -38.38095277 33.12339447 -34.70849609 29.42675781 C-33.45929423 28.16747912 -32.21189069 26.90641389 -30.96630859 25.64355469 C-29.1788205 23.83189213 -27.38502898 22.02668786 -25.58984375 20.22265625 C-25.03144806 19.65393799 -24.47305237 19.08521973 -23.8977356 18.49926758 C-22.5382724 17.13940975 -21.12696518 15.83174452 -19.70703125 14.53515625 C-19.04703125 14.53515625 -18.38703125 14.53515625 -17.70703125 14.53515625 C-17.36671875 13.69984375 -17.36671875 13.69984375 -17.01953125 12.84765625 C-15.33325858 9.8766044 -13.17667725 7.889935 -10.70703125 5.53515625 C-9.94390625 4.60703125 -9.18078125 3.67890625 -8.39453125 2.72265625 C-5.5023454 0.36855149 -3.73608344 -0.27337196 0 0 Z " fill="#E1AE37" transform="translate(279.70703125,2.46484375)"/>
<path d="M0 0 C3.32049069 1.55957226 5.24427678 3.12153442 7.625 5.9375 C8.51058594 6.97197266 8.51058594 6.97197266 9.4140625 8.02734375 C11 10 11 10 13 13 C-12.64886289 39.03825308 -38.34258475 65.03138935 -64.09707254 90.96518314 C-67.1398286 94.02920037 -70.18221202 97.09358736 -73.22436523 100.15820312 C-73.82999137 100.76828854 -74.43561751 101.37837395 -75.05959595 102.0069468 C-84.85594515 111.87720295 -94.62182407 121.77708179 -104.3767057 131.68830323 C-114.3921052 141.86286448 -124.43972482 152.00476272 -134.51777273 162.11727715 C-140.73220213 168.35499567 -146.92034913 174.61660074 -153.07689 180.91146994 C-157.30520714 185.22988076 -161.56451611 189.51606733 -165.84911399 193.77863741 C-168.31812729 196.23679463 -170.77150823 198.7064093 -173.18892288 201.21541595 C-189.26812594 217.81298495 -189.26812594 217.81298495 -198.47641903 218.25980568 C-201.75818418 218.13305652 -204.79132893 217.70590312 -208 217 C-208.19347895 211.14446016 -207.57984784 207.02350714 -203.64415646 202.536726 C-202.12628732 200.98123953 -200.58332042 199.45000106 -199.02122498 197.93893433 C-198.17507521 197.08509474 -197.32892545 196.23125515 -196.45713478 195.35154164 C-194.11491247 192.99709279 -191.75428936 190.66444907 -189.3835355 188.33894491 C-186.82799388 185.8223789 -184.29862453 183.27974009 -181.76593018 180.74021912 C-177.37811185 176.34768844 -172.97415658 171.971898 -168.55871391 167.6071434 C-162.17485452 161.29652141 -155.81608168 154.96110369 -149.4630971 148.61941852 C-139.15446757 138.330472 -128.82591294 128.06177191 -118.48461914 117.80566406 C-108.4408613 107.84455541 -98.40662815 97.87400944 -88.38500977 87.890625 C-87.45794172 86.96710373 -87.45794172 86.96710373 -86.51214503 86.02492546 C-83.41155825 82.93608427 -80.3111573 79.84705663 -77.21084869 76.75793624 C-51.50264365 51.14298612 -25.76200955 25.56083039 0 0 Z " fill="#FED167" transform="translate(233,44)"/>
<path d="M0 0 C14.64305894 3.41754527 26.89725749 17.68230377 34.73828125 29.76171875 C37.16174554 34.15107016 38.09135135 37.43496213 37.29296875 42.53515625 C34.95757596 45.72086368 32.13210381 48.30622403 29.23046875 50.97265625 C27.71635482 52.40632882 26.20461462 53.84251266 24.6953125 55.28125 C23.94838135 55.98942871 23.2014502 56.69760742 22.43188477 57.42724609 C19.81827052 60.00297323 17.44336687 62.73318524 15.05932617 65.51977539 C11.85508156 69.1757587 8.41519016 72.59725159 4.98046875 76.03515625 C4.26568359 76.7621875 3.55089844 77.48921875 2.81445312 78.23828125 C2.13060547 78.9240625 1.44675781 79.60984375 0.7421875 80.31640625 C0.12690186 80.93580078 -0.48838379 81.55519531 -1.12231445 82.19335938 C-2.70703125 83.53515625 -2.70703125 83.53515625 -4.70703125 83.53515625 C-6.43199078 81.9069637 -8.06728972 80.24629446 -9.70703125 78.53515625 C-10.88691219 77.35938551 -12.07027198 76.18709954 -13.25634766 75.01757812 C-16.8485422 71.46102474 -20.43458932 67.89834086 -24.01855469 64.33349609 C-25.56267555 62.79947817 -27.10858021 61.26725374 -28.65625 59.73681641 C-30.89927609 57.51806755 -33.13576411 55.29290556 -35.37109375 53.06640625 C-36.40709213 52.04589172 -36.40709213 52.04589172 -37.46401978 51.00476074 C-40.74674777 47.72280239 -43.56351613 44.71164422 -45.70703125 40.53515625 C-42.0472092 36.82601045 -38.38095277 33.12339447 -34.70849609 29.42675781 C-33.45929423 28.16747912 -32.21189069 26.90641389 -30.96630859 25.64355469 C-29.1788205 23.83189213 -27.38502898 22.02668786 -25.58984375 20.22265625 C-24.75225021 19.36957886 -24.75225021 19.36957886 -23.8977356 18.49926758 C-22.5382724 17.13940975 -21.12696518 15.83174452 -19.70703125 14.53515625 C-19.04703125 14.53515625 -18.38703125 14.53515625 -17.70703125 14.53515625 C-17.48015625 13.97828125 -17.25328125 13.42140625 -17.01953125 12.84765625 C-15.33325858 9.8766044 -13.17667725 7.889935 -10.70703125 5.53515625 C-9.94390625 4.60703125 -9.18078125 3.67890625 -8.39453125 2.72265625 C-5.5023454 0.36855149 -3.73608344 -0.27337196 0 0 Z " fill="#CBCBCA" transform="translate(279.70703125,2.46484375)"/>
<path d="M0 0 C14.64305894 3.41754527 26.89725749 17.68230377 34.73828125 29.76171875 C37.16507191 34.15709485 38.10055719 37.42911319 37.29296875 42.53515625 C34.90539484 45.91505251 32.02943478 48.6846594 29.04296875 51.53515625 C28.26566406 52.32277344 27.48835938 53.11039063 26.6875 53.921875 C22.34774458 58.17260979 22.34774458 58.17260979 20.29296875 59.53515625 C16.15985638 59.21906101 14.31604963 56.83337208 11.54296875 53.91015625 C8.52839172 50.79847718 5.52901494 47.78203928 2.23046875 44.97265625 C-7.02157738 37.02634244 -14.96471312 27.91978429 -22.70703125 18.53515625 C-21.33203125 16.53515625 -21.33203125 16.53515625 -19.70703125 14.53515625 C-19.04703125 14.53515625 -18.38703125 14.53515625 -17.70703125 14.53515625 C-17.48015625 13.97828125 -17.25328125 13.42140625 -17.01953125 12.84765625 C-15.33325858 9.8766044 -13.17667725 7.889935 -10.70703125 5.53515625 C-9.94390625 4.60703125 -9.18078125 3.67890625 -8.39453125 2.72265625 C-5.5023454 0.36855149 -3.73608344 -0.27337196 0 0 Z " fill="#D66F6E" transform="translate(279.70703125,2.46484375)"/>
<path d="M0 0 C0.33 0 0.66 0 1 0 C0.67 2.97 0.34 5.94 0 9 C5.28 9 10.56 9 16 9 C16 17.125 16 17.125 15 21 C14.96111651 23.33300933 14.9551365 25.66709801 15 28 C16.43739513 28.02712066 17.87493863 28.04645067 19.3125 28.0625 C20.11300781 28.07410156 20.91351563 28.08570313 21.73828125 28.09765625 C24.16861334 28.09657855 24.16861334 28.09657855 27 27 C28.72795352 26.93197033 30.45835365 26.91504355 32.1875 26.9375 C33.08855469 26.94652344 33.98960938 26.95554687 34.91796875 26.96484375 C35.60503906 26.97644531 36.29210938 26.98804688 37 27 C33.67718434 29.74029273 30.30940281 32.15933037 26.6484375 34.42578125 C25.63136719 35.05806641 24.61429688 35.69035156 23.56640625 36.34179688 C22.51324219 36.99212891 21.46007813 37.64246094 20.375 38.3125 C18.29919883 39.59980848 16.22367657 40.88756681 14.1484375 42.17578125 C13.12886963 42.80492432 12.10930176 43.43406738 11.05883789 44.08227539 C9.00287321 45.37125317 6.96295508 46.686152 4.93920898 48.02514648 C3.97571533 48.66137939 3.01222168 49.2976123 2.01953125 49.953125 C1.16464111 50.52836914 0.30975098 51.10361328 -0.57104492 51.69628906 C-4.26651377 53.67978526 -6.89919855 53.54161529 -11 53 C-10.505 50.03 -10.505 50.03 -10 47 C-11.98 47 -13.96 47 -16 47 C-17 45 -17 45 -16.19897461 42.36474609 C-15.77108643 41.26211426 -15.34319824 40.15948242 -14.90234375 39.0234375 C-14.4328833 37.80164795 -13.96342285 36.5798584 -13.47973633 35.32104492 C-12.96577373 34.00565121 -12.45169295 32.69030368 -11.9375 31.375 C-11.42588891 30.05018992 -10.91506502 28.72507557 -10.4050293 27.3996582 C-9.39979394 24.78913429 -8.39120969 22.17994708 -7.37988281 19.57177734 C-5.66058454 15.12143522 -3.97845891 10.65802665 -2.3125 6.1875 C-1.85488281 4.96417969 -1.39726562 3.74085938 -0.92578125 2.48046875 C-0.62027344 1.66191406 -0.31476562 0.84335938 0 0 Z " fill="#E09561" transform="translate(25,252)"/>
<path d="M0 0 C-0.99 4.62 -1.98 9.24 -3 14 C-1.35 14 0.3 14 2 14 C-1.76523316 17.34877555 -6.12913488 18.70298331 -10.796875 20.36328125 C-11.66330627 20.67774704 -12.52973755 20.99221283 -13.42242432 21.31620789 C-16.19601117 22.32139136 -18.97284829 23.31721322 -21.75 24.3125 C-24.47465746 25.29590607 -27.19861309 26.28123664 -29.92248535 27.26681519 C-31.70710472 27.91205834 -33.49217709 28.55605002 -35.27770996 29.19876099 C-41.61686321 31.48383025 -47.93047461 33.83087292 -54.21673584 36.25788879 C-58.78442707 38 -58.78442707 38 -61 38 C-59.07443364 31.14381674 -56.7527517 24.56747868 -54 18 C-51.69 18.33 -49.38 18.66 -47 19 C-47.33 20.98 -47.66 22.96 -48 25 C-41.03119337 24.66063569 -36.90744006 22.55344874 -31.1875 18.6875 C-29.52621794 17.60259461 -27.86475386 16.51796791 -26.203125 15.43359375 C-25.35298828 14.87140137 -24.50285156 14.30920898 -23.62695312 13.72998047 C-19.26120054 10.85491329 -14.8505507 8.05168844 -10.4375 5.25 C-9.62240967 4.72494873 -8.80731934 4.19989746 -7.9675293 3.65893555 C-7.21383057 3.17851807 -6.46013184 2.69810059 -5.68359375 2.203125 C-5.01900146 1.77676758 -4.35440918 1.35041016 -3.66967773 0.91113281 C-2 0 -2 0 0 0 Z " fill="#CE804A" transform="translate(62,280)"/>
<path d="M0 0 C4.87225454 1.19769468 9.10119926 3.95864513 13.3359375 6.57421875 C8.66127413 12.19725632 3.65828083 17.37163429 -1.5390625 22.51171875 C-2.3228125 23.29095703 -3.1065625 24.07019531 -3.9140625 24.87304688 C-5.82844831 26.7757596 -7.74514284 28.67608046 -9.6640625 30.57421875 C-12.99549158 28.99621922 -15.24355717 27.26429635 -17.8515625 24.63671875 C-18.89376953 23.60224609 -18.89376953 23.60224609 -19.95703125 22.546875 C-21.6640625 20.57421875 -21.6640625 20.57421875 -22.6640625 17.57421875 C-21.2890625 16.07421875 -21.2890625 16.07421875 -19.6640625 14.57421875 C-19.0040625 14.57421875 -18.3440625 14.57421875 -17.6640625 14.57421875 C-17.4371875 14.01734375 -17.2103125 13.46046875 -16.9765625 12.88671875 C-15.29028983 9.9156669 -13.1337085 7.9289975 -10.6640625 5.57421875 C-9.9009375 4.64609375 -9.1378125 3.71796875 -8.3515625 2.76171875 C-5.47437677 0.41982339 -3.71624454 -0.20645803 0 0 Z " fill="#D98D8C" transform="translate(279.6640625,2.42578125)"/>
<path d="M0 0 C0.33 0 0.66 0 1 0 C0.67 2.97 0.34 5.94 0 9 C5.28 9 10.56 9 16 9 C11.36602843 16.47754504 6.47875085 23.70044803 1.34375 30.84130859 C-1.84595033 35.289414 -4.79161875 39.76726927 -7.328125 44.62890625 C-10.19824111 46.9826697 -13.40285275 46.20188071 -17 46 C-5.10561282 13.48571149 -5.10561282 13.48571149 0 0 Z " fill="#E6A87F" transform="translate(25,252)"/>
<path d="M0 0 C0.68485921 1.17710176 1.34692828 2.36746945 2 3.5625 C2.37125 4.22378906 2.7425 4.88507812 3.125 5.56640625 C4.41844524 9.16380082 4.64778216 11.17255538 4 15 C1.60804214 18.37708282 -1.26325039 21.14923248 -4.25 24 C-5.02730469 24.78761719 -5.80460937 25.57523438 -6.60546875 26.38671875 C-10.94522417 30.63745354 -10.94522417 30.63745354 -13 32 C-16.65036137 31.68009287 -18.2810023 30.04893988 -20.75 27.4375 C-21.67039062 26.47650391 -21.67039062 26.47650391 -22.609375 25.49609375 C-23.06828125 25.00238281 -23.5271875 24.50867188 -24 24 C-22.46347997 20.36120325 -20.27579241 18.01785354 -17.5 15.234375 C-16.1696875 13.90019531 -16.1696875 13.90019531 -14.8125 12.5390625 C-13.4203125 11.15847656 -13.4203125 11.15847656 -12 9.75 C-11.071875 8.81414063 -10.14375 7.87828125 -9.1875 6.9140625 C-8.300625 6.02976562 -7.41375 5.14546875 -6.5 4.234375 C-5.6853125 3.42194336 -4.870625 2.60951172 -4.03125 1.77246094 C-2 0 -2 0 0 0 Z " fill="#C75957" transform="translate(313,30)"/>
<path d="M0 0 C2.31 0.33 4.62 0.66 7 1 C6.67 2.98 6.34 4.96 6 7 C8.31 7 10.62 7 13 7 C13.0625 9.75 13.0625 9.75 12 13 C6.53110321 16.7660812 -0.66837313 18.25516754 -7 20 C-5.07443364 13.14381674 -2.7527517 6.56747868 0 0 Z " fill="#020101" transform="translate(8,298)"/>
</svg>
